<svg width="38" height="38" viewBox="0 0 38 38" fill="none" xmlns="http://www.w3.org/2000/svg">
<path d="M19 12.6666C19.8745 12.6666 20.5834 13.3755 20.5834 14.2499V20.5833C20.5834 21.4577 19.8745 22.1666 19 22.1666C18.1256 22.1666 17.4167 21.4577 17.4167 20.5833V14.2499C17.4167 13.3755 18.1256 12.6666 19 12.6666Z" fill="#7D7D7D"/>
<path d="M19 25.3333C18.1256 25.3333 17.4167 26.0421 17.4167 26.9166C17.4167 27.791 18.1256 28.4999 19 28.4999H19.0159C19.8903 28.4999 20.5992 27.791 20.5992 26.9166C20.5992 26.0421 19.8903 25.3333 19.0159 25.3333H19Z" fill="#7D7D7D"/>
<path fill-rule="evenodd" clip-rule="evenodd" d="M16.6697 3.61482C17.3811 3.21431 18.1837 3.00391 19.0001 3.00391C19.8164 3.00391 20.619 3.21431 21.3304 3.61482C22.0418 4.01533 22.6379 4.59243 23.0613 5.29042L23.0659 5.29794L36.4767 27.6863L36.4895 27.7082C36.9043 28.4264 37.1237 29.2407 37.1261 30.0701C37.1284 30.8995 36.9135 31.7151 36.5028 32.4357C36.0921 33.1562 35.4998 33.7567 34.785 34.1773C34.0702 34.5979 33.2576 34.824 32.4283 34.8332L32.4109 34.8333L5.57182 34.8333C4.74246 34.8241 3.92995 34.5979 3.21512 34.1773C2.50029 33.7567 1.90805 33.1562 1.49733 32.4357C1.08661 31.7151 0.87172 30.8995 0.874042 30.0701C0.876364 29.2407 1.09582 28.4264 1.51057 27.7082L1.52343 27.6863L14.9343 5.29796L16.2925 6.11157L14.9388 5.29042C15.3622 4.59243 15.9583 4.01533 16.6697 3.61482ZM17.6482 6.92959L4.24764 29.3008C4.11278 29.538 4.04146 29.8061 4.0407 30.079C4.03992 30.3555 4.11155 30.6273 4.24846 30.8675C4.38537 31.1077 4.58278 31.3079 4.82106 31.4481C5.05725 31.587 5.32543 31.6623 5.59935 31.6666H32.4008C32.6747 31.6623 32.9429 31.587 33.1791 31.4481C33.4173 31.3079 33.6147 31.1077 33.7516 30.8675C33.8886 30.6273 33.9602 30.3555 33.9594 30.079C33.9586 29.8061 33.8873 29.5381 33.7525 29.3009L20.3538 6.93275L20.3519 6.92959C20.2109 6.69834 20.0129 6.50711 19.7768 6.37421C19.5397 6.24071 19.2722 6.17057 19.0001 6.17057C18.7279 6.17057 18.4604 6.24071 18.2233 6.37421C17.9872 6.50711 17.7892 6.69834 17.6482 6.92959Z" fill="#7D7D7D"/>
</svg>
