<svg width="38" height="38" viewBox="0 0 38 38" fill="none" xmlns="http://www.w3.org/2000/svg">
<path fill-rule="evenodd" clip-rule="evenodd" d="M18.9997 12.6667C15.5019 12.6667 12.6664 15.5022 12.6664 19C12.6664 22.4978 15.5019 25.3333 18.9997 25.3333C22.4975 25.3333 25.3331 22.4978 25.3331 19C25.3331 15.5022 22.4975 12.6667 18.9997 12.6667ZM15.8331 19C15.8331 17.2511 17.2508 15.8333 18.9997 15.8333C20.7486 15.8333 22.1664 17.2511 22.1664 19C22.1664 20.7489 20.7486 22.1667 18.9997 22.1667C17.2508 22.1667 15.8331 20.7489 15.8331 19Z" fill="#004127"/>
<path fill-rule="evenodd" clip-rule="evenodd" d="M37.832 18.2908C37.8323 18.2914 37.8326 18.2919 36.4164 19C37.8326 19.7081 37.8323 19.7086 37.832 19.7092L37.8295 19.7143L37.824 19.7251L37.806 19.7603C37.7909 19.7897 37.7696 19.8308 37.742 19.8828C37.687 19.9869 37.607 20.1349 37.5026 20.3205C37.2939 20.6916 36.9866 21.2143 36.5837 21.8382C35.7798 23.0829 34.5847 24.7466 33.0194 26.4162C29.9176 29.7248 25.1739 33.25 18.9997 33.25C12.8255 33.25 8.08182 29.7248 4.98004 26.4162C3.41471 24.7466 2.21966 23.0829 1.41575 21.8382C1.01282 21.2143 0.705559 20.6916 0.496843 20.3205C0.392425 20.1349 0.312493 19.9869 0.257414 19.8828C0.22987 19.8308 0.208524 19.7897 0.193423 19.7603L0.175456 19.7251L0.169991 19.7143L0.168141 19.7106C0.16785 19.71 0.166878 19.7081 1.58305 19C0.166878 18.2919 0.167145 18.2914 0.167436 18.2908L0.169991 18.2857L0.175456 18.2749L0.193423 18.2397C0.208524 18.2104 0.22987 18.1692 0.257414 18.1172C0.312493 18.0131 0.392425 17.8651 0.496843 17.6795C0.705559 17.3084 1.01282 16.7857 1.41575 16.1618C2.21966 14.9171 3.41471 13.2534 4.98004 11.5838C8.08182 8.2752 12.8255 4.75 18.9997 4.75C25.1739 4.75 29.9176 8.2752 33.0194 11.5838C34.5847 13.2534 35.7798 14.9171 36.5837 16.1618C36.9866 16.7857 37.2939 17.3084 37.5026 17.6795C37.607 17.8651 37.687 18.0131 37.742 18.1172C37.7696 18.1692 37.7909 18.2104 37.806 18.2397L37.824 18.2749L37.8295 18.2857L37.832 18.2908ZM4.07588 20.1202C3.79168 19.6801 3.56227 19.299 3.38923 19C3.56227 18.701 3.79168 18.3199 4.07588 17.8798C4.80583 16.7496 5.88682 15.2466 7.29024 13.7496C10.126 10.7248 14.0906 7.91667 18.9997 7.91667C23.9088 7.91667 27.8735 10.7248 30.7092 13.7496C32.1126 15.2466 33.1936 16.7496 33.9236 17.8798C34.2078 18.3199 34.4372 18.701 34.6102 19C34.4372 19.299 34.2078 19.6801 33.9236 20.1202C33.1936 21.2504 32.1126 22.7534 30.7092 24.2504C27.8735 27.2752 23.9088 30.0833 18.9997 30.0833C14.0906 30.0833 10.126 27.2752 7.29024 24.2504C5.88682 22.7534 4.80583 21.2504 4.07588 20.1202Z" fill="#004127"/>
<path d="M36.4164 19L37.832 18.2908C38.0549 18.7366 38.0549 19.2635 37.832 19.7092L36.4164 19Z" fill="#004127"/>
<path d="M0.167436 18.2908L1.58305 19L0.166878 19.7081C-0.0559975 19.2623 -0.0554399 18.7366 0.167436 18.2908Z" fill="#004127"/>
</svg>