<svg width="38" height="38" viewBox="0 0 38 38" fill="none" xmlns="http://www.w3.org/2000/svg">
<path d="M20.583 7.91634C20.583 7.04189 19.8741 6.33301 18.9997 6.33301C18.1252 6.33301 17.4163 7.04189 17.4163 7.91634V17.4163H7.91634C7.04189 17.4163 6.33301 18.1252 6.33301 18.9997C6.33301 19.8741 7.04189 20.583 7.91634 20.583H17.4163V30.083C17.4163 30.9575 18.1252 31.6663 18.9997 31.6663C19.8741 31.6663 20.583 30.9575 20.583 30.083V20.583H30.083C30.9575 20.583 31.6663 19.8741 31.6663 18.9997C31.6663 18.1252 30.9575 17.4163 30.083 17.4163H20.583V7.91634Z" fill="#004127"/>
</svg>
