<svg width="38" height="37" viewBox="0 0 38 37" fill="none" xmlns="http://www.w3.org/2000/svg">
<path d="M17.417 3.625C24.9393 3.62517 31.0828 9.5695 31.083 16.958C31.083 20.2863 29.836 23.3213 27.7783 25.6523L33.9473 31.6592C34.3427 32.0445 34.351 32.6776 33.9658 33.0732C33.5805 33.4683 32.9473 33.4768 32.5518 33.0918L26.3477 27.0508C23.9489 29.0721 20.8244 30.2919 17.417 30.292C9.89441 30.292 3.75 24.3468 3.75 16.958C3.75018 9.56939 9.89452 3.625 17.417 3.625ZM17.417 5.625C10.9485 5.625 5.75018 10.7239 5.75 16.958C5.75 23.1923 10.9484 28.292 17.417 28.292C20.5963 28.2919 23.4664 27.0576 25.5654 25.0645C25.5899 25.0323 25.6166 25.0014 25.6455 24.9717C25.6871 24.9289 25.7315 24.8902 25.7783 24.8564C27.8242 22.8111 29.083 20.0229 29.083 16.958C29.0828 10.724 23.8854 5.62517 17.417 5.625Z" fill="white"/>
</svg>
