<svg width="76" height="80" viewBox="0 0 76 80" fill="none" xmlns="http://www.w3.org/2000/svg">
<path fill-rule="evenodd" clip-rule="evenodd" d="M2.83882 0.44448C1.76669 0.94788 0.852278 1.86356 0.343813 2.94272L0 3.67258V37.0398V70.407L0.441594 71.2984C0.970719 72.3658 2.15104 73.4685 3.19462 73.8701C3.90464 74.1432 4.93009 74.1601 23.3212 74.2C41.7974 74.2401 42.6953 74.2292 42.6076 73.9655C42.5569 73.8135 42.2182 72.8276 41.8546 71.7746L41.1937 69.86H23.0132C6.69584 69.86 4.80739 69.8349 4.58486 69.6145C4.36122 69.3927 4.33709 66.2233 4.33709 37.06C4.33709 12.1391 4.3803 4.70814 4.52634 4.56342C4.80171 4.29054 61.4375 4.29054 61.7128 4.56342C61.8581 4.70736 61.9021 9.32845 61.9021 24.4118V44.0727H64.1124H66.3226L66.281 23.8727L66.2392 3.67258L65.8635 2.84895C65.3918 1.81465 64.0741 0.592484 63.0624 0.250841C62.3904 0.0239126 59.5129 -0.000155536 33.0521 7.50335e-07L3.7851 0.000157037L2.83882 0.44448ZM15.6955 17.7778C14.1771 18.5337 14.0105 20.7178 15.4069 21.5646C15.9239 21.8781 16.0969 21.8808 33.4077 21.8416L50.8865 21.8019L51.4264 21.2181C52.4539 20.1069 52.0741 18.2996 50.6984 17.7542C50.1334 17.5302 48.2944 17.504 33.1559 17.5043C17.3701 17.5044 16.2078 17.5226 15.6955 17.7778ZM15.9515 35.0111C14.1424 35.554 13.8965 38.121 15.5672 39.0248C16.0583 39.2907 17.0273 39.306 33.3052 39.306C50.4497 39.306 50.5255 39.3046 50.9592 38.9837C51.7178 38.4225 51.9926 37.9266 51.9926 37.118C51.9926 36.3093 51.7178 35.8136 50.9592 35.2522C50.5263 34.9318 50.4271 34.9298 33.4629 34.9029C24.0795 34.8881 16.1993 34.9367 15.9515 35.0111ZM39.6647 48.172C39.4478 48.2862 39.1731 48.5807 39.0543 48.8263C38.8676 49.2124 38.8723 49.3436 39.0892 49.7944C39.3964 50.433 39.5093 50.4592 42.1881 50.5152C44.5692 50.5649 45.1401 50.756 45.5637 51.6458C45.6883 51.9074 46.7857 55.8489 48.0023 60.4047C49.2189 64.9605 50.3268 69.002 50.4645 69.386C51.0408 70.9941 51.8604 71.9593 53.1491 72.5476L53.9376 72.9076L62.8816 72.9528C71.703 72.9973 71.8301 72.9936 72.1472 72.6793C72.4947 72.335 72.5709 71.5912 72.3084 71.1053C71.9927 70.5208 71.1707 70.4675 62.879 70.4941C53.4721 70.5241 53.7921 70.5774 52.9705 68.8442C52.2758 67.3784 51.3123 67.5157 62.2875 67.5157H71.978L72.3666 67.1641C72.7003 66.8622 72.9844 65.8907 74.3776 60.2873L76 53.7623L75.6762 53.3326L75.3524 52.9029L61.9477 52.8629L48.5429 52.8231L48.2672 51.8136C47.7788 50.0257 46.8283 48.9053 45.3314 48.3536C44.3801 48.0027 40.2376 47.87 39.6647 48.172ZM15.4241 52.6622C14.0884 53.4692 14.1192 55.4874 15.4806 56.3719C15.8805 56.6316 16.497 56.6576 23.3343 56.7023C28.2341 56.7341 30.9474 56.6944 31.3237 56.5852C33.0399 56.0866 33.5066 54.0058 32.164 52.8376L31.6103 52.3559L23.7696 52.3565C16.2713 52.357 15.9069 52.3705 15.4241 52.6622ZM53.9193 74.5254C52.9078 74.9956 52.3859 75.7928 52.3092 76.9847C52.255 77.831 52.3039 78.0751 52.6425 78.6477C53.2303 79.6417 54.0942 80.0701 55.3514 79.9907C56.1407 79.941 56.4651 79.8368 56.934 79.4825C58.5311 78.2753 58.4463 75.8607 56.7667 74.7203C56.0363 74.2244 54.7554 74.1367 53.9193 74.5254ZM66.5363 74.5254C65.5247 74.9956 65.0029 75.7928 64.9262 76.9847C64.872 77.831 64.9209 78.0751 65.2595 78.6477C65.8473 79.6417 66.7112 80.0701 67.9683 79.9907C68.7577 79.941 69.0821 79.8368 69.551 79.4825C71.1481 78.2753 71.0633 75.8607 69.3836 74.7203C68.6533 74.2244 67.3723 74.1367 66.5363 74.5254Z" fill="#1A1A1A"/>
</svg>
