<svg width="200" height="200" viewBox="0 0 200 200" fill="none" xmlns="http://www.w3.org/2000/svg">
<path fill-rule="evenodd" clip-rule="evenodd" d="M111.719 11.7158V23.4315H117.578H123.438V11.7158V0H117.578H111.719V11.7158ZM71.7769 18.6476L67.5875 22.8493L76.066 31.3518L84.5449 39.8547L88.7574 35.6433L92.9699 31.4318L84.4684 22.9391L75.9668 14.4459L71.7769 18.6476ZM150.677 22.95L142.184 31.4471L146.39 35.639L150.596 39.8305L159.089 31.333L167.582 22.836L163.376 18.6441L159.17 14.4526L150.677 22.95ZM11.7082 36.8176C8.41758 37.9392 5.40156 40.1734 3.26953 43.0687C1.43906 45.5548 0 49.4815 0 51.991V53.5223L5.89609 53.4145L11.7922 53.3067L12.3254 51.7446C12.9664 49.867 14.3293 48.6048 16.3094 48.0549C18.2426 47.5184 29.0727 47.532 31.0238 48.0737C33.1332 48.6591 34.5508 50.2149 35.2734 52.7373C37.5465 60.6716 57.4305 142.734 57.1063 142.842C56.8875 142.915 55.7105 143.689 54.491 144.562C44.8027 151.498 44.8234 166.404 54.5305 173.353C57.8965 175.763 60.793 176.518 66.6844 176.518C71.1867 176.518 71.5449 176.571 71.2742 177.201C71.1129 177.577 70.8977 179.499 70.7965 181.472C70.5594 186.087 71.5066 189.46 73.9852 192.826C81.0289 202.391 95.5336 202.391 102.577 192.826C105.056 189.46 106.003 186.087 105.766 181.472C105.665 179.499 105.45 177.577 105.288 177.201C105.011 176.555 106.021 176.518 123.438 176.518C140.854 176.518 141.864 176.555 141.587 177.201C141.425 177.577 141.21 179.499 141.109 181.472C140.872 186.087 141.819 189.46 144.298 192.826C151.375 202.437 166.075 202.365 173.007 192.686C177.302 186.691 177.257 177.855 172.902 171.942C170.963 169.308 168.086 167.049 165.125 165.834C163.086 164.997 163.074 164.997 113.281 164.802C64.0703 164.609 63.4605 164.597 62.123 163.812C58.3586 161.601 58.3586 156.287 62.123 154.076C63.4648 153.288 63.9555 153.28 118.431 153.178L173.385 153.075L173.971 151.03C186.727 106.528 200 59.955 200 59.6981C200 59.5087 166.876 59.3599 124.675 59.3599H49.3512L48.2504 54.5759C46.1914 45.6259 44.4938 42.4134 40.1234 39.197C36.1949 36.3056 34.2602 35.9268 23.4941 35.9385C14.9855 35.9479 14.057 36.017 11.7082 36.8176ZM174.23 106.125L164.176 141.175L116.854 141.274C90.8266 141.329 69.5312 141.282 69.5312 141.169C69.5312 140.95 52.825 72.8998 52.491 71.7591C52.3012 71.11 55.618 71.0756 118.287 71.0756H184.283L174.23 106.125ZM91.1098 177.557C93.1668 178.593 94.3379 181.433 93.6836 183.802C92.5414 187.938 87.3641 189.329 84.3449 186.311C81.4004 183.367 82.5547 178.494 86.5234 177.114C88.1602 176.544 89.3227 176.657 91.1098 177.557ZM161.422 177.557C163.479 178.593 164.65 181.433 163.996 183.802C162.854 187.938 157.677 189.329 154.657 186.311C151.713 183.367 152.867 178.494 156.836 177.114C158.473 176.544 159.635 176.657 161.422 177.557Z" fill="#7D7D7D"/>
</svg>
