<svg width="38" height="37" viewBox="0 0 38 37" fill="none" xmlns="http://www.w3.org/2000/svg">
<path fill-rule="evenodd" clip-rule="evenodd" d="M19 3.08301C14.6277 3.08301 11.0833 6.53415 11.0833 10.7913C11.0833 15.0485 14.6277 18.4997 19 18.4997C23.3723 18.4997 26.9167 15.0485 26.9167 10.7913C26.9167 6.53415 23.3723 3.08301 19 3.08301ZM14.25 10.7913C14.25 8.23702 16.3766 6.16634 19 6.16634C21.6234 6.16634 23.75 8.23702 23.75 10.7913C23.75 13.3457 21.6234 15.4163 19 15.4163C16.3766 15.4163 14.25 13.3457 14.25 10.7913Z" fill="#1A1A1A"/>
<path d="M12.6667 21.583C10.567 21.583 8.5534 22.3951 7.06874 23.8407C5.58407 25.2863 4.75 27.247 4.75 29.2913V32.3747C4.75 33.2261 5.45888 33.9163 6.33333 33.9163C7.20778 33.9163 7.91667 33.2261 7.91667 32.3747V29.2913C7.91667 28.0647 8.41711 26.8883 9.30791 26.021C10.1987 25.1536 11.4069 24.6663 12.6667 24.6663H25.3333C26.5931 24.6663 27.8013 25.1536 28.6921 26.021C29.5829 26.8883 30.0833 28.0647 30.0833 29.2913V32.3747C30.0833 33.2261 30.7922 33.9163 31.6667 33.9163C32.5411 33.9163 33.25 33.2261 33.25 32.3747V29.2913C33.25 27.247 32.4159 25.2863 30.9313 23.8407C29.4466 22.3951 27.433 21.583 25.3333 21.583H12.6667Z" fill="#1A1A1A"/>
</svg>
