<svg width="38" height="38" viewBox="0 0 38 38" fill="none" xmlns="http://www.w3.org/2000/svg">
<g clip-path="url(#clip0_126_15777)">
<path fill-rule="evenodd" clip-rule="evenodd" d="M2.70292 0.463748C2.08459 -0.154583 1.08208 -0.154583 0.463748 0.463748C-0.154583 1.08208 -0.154583 2.08459 0.463748 2.70292L7.23343 9.4726C4.36952 11.9378 1.97973 14.9126 0.18817 18.2514C-0.0550833 18.7047 -0.0629195 19.2479 0.167157 19.7081L1.58333 19C0.167157 19.7081 0.16842 19.7106 0.16842 19.7106L0.17027 19.7143L0.175734 19.7251L0.193702 19.7603C0.208803 19.7897 0.230148 19.8308 0.257693 19.8828C0.312772 19.9869 0.392704 20.1349 0.497121 20.3205C0.705837 20.6916 1.0131 21.2143 1.41603 21.8382C2.21994 23.0829 3.41499 24.7466 4.98032 26.4163C8.0821 29.7248 12.8258 33.25 19 33.25L19.0259 33.2498C22.3009 33.1963 25.4857 32.2265 28.2246 30.4638L35.2971 37.5363C35.9154 38.1546 36.9179 38.1546 37.5363 37.5363C38.1546 36.9179 38.1546 35.9154 37.5363 35.2971L2.70292 0.463748ZM3.39241 19.005C4.98647 16.2421 7.04633 13.7772 9.47957 11.7188L13.5154 15.7546C13.3578 16.0059 13.2178 16.2686 13.0965 16.5409C12.7503 17.3177 12.5642 18.1564 12.5492 19.0068C12.5342 19.8571 12.6906 20.7018 13.0091 21.4905C13.3277 22.2791 13.8018 22.9954 14.4032 23.5968C15.0046 24.1982 15.721 24.6724 16.5096 24.9909C17.2982 25.3094 18.1429 25.4659 18.9932 25.4508C19.8436 25.4358 20.6823 25.2497 21.4592 24.9036C21.7314 24.7823 21.9941 24.6422 22.2454 24.4846L25.9214 28.1606C23.8192 29.3747 21.4341 30.0411 18.9871 30.0833C14.0839 30.0784 10.1238 27.2726 7.29052 24.2504C5.8871 22.7535 4.80611 21.2504 4.07616 20.1202C3.79355 19.6826 3.56511 19.3033 3.39241 19.005ZM15.7153 19.0626C15.721 18.7403 15.7759 18.4214 15.8775 18.1167L19.8833 22.1225C19.5787 22.2241 19.2597 22.279 18.9374 22.2847C18.5122 22.2922 18.0898 22.214 17.6955 22.0547C17.3012 21.8954 16.943 21.6584 16.6423 21.3577C16.3416 21.057 16.1046 20.6988 15.9453 20.3045C15.7861 19.9102 15.7078 19.4878 15.7153 19.0626Z" fill="#004127"/>
<path d="M34.5879 19.0318C30.1176 11.6624 24.1705 6.70788 16.0689 8.18932C15.2087 8.34661 14.3839 7.7768 14.2266 6.91662C14.0693 6.05643 14.6391 5.2316 15.4993 5.0743C25.8763 3.17679 32.9957 10.0151 37.7111 18.0879C38.0442 18.5615 38.1044 19.201 37.8128 19.7464C36.7998 21.6417 35.5916 23.4259 34.208 25.0703C33.6449 25.7394 32.6461 25.8254 31.977 25.2624C31.3079 24.6993 31.2219 23.7005 31.785 23.0314C32.8356 21.7829 33.7734 20.4444 34.5879 19.0318Z" fill="#004127"/>
</g>
<defs>
<clipPath id="clip0_126_15777">
<rect width="38" height="38" fill="white"/>
</clipPath>
</defs>
</svg>