<svg width="38" height="38" viewBox="0 0 38 38" fill="none" xmlns="http://www.w3.org/2000/svg">
<path fill-rule="evenodd" clip-rule="evenodd" d="M33.25 3.16634C33.25 2.29189 32.5411 1.58301 31.6667 1.58301H10.2917C8.82193 1.58301 7.41238 2.16686 6.37312 3.20612C5.33385 4.24539 4.75 5.65493 4.75 7.12467V30.8747C4.75 32.3444 5.33385 33.754 6.37312 34.7932C7.41238 35.8325 8.82193 36.4163 10.2917 36.4163H31.6667C32.5411 36.4163 33.25 35.7075 33.25 34.833V3.16634ZM8.61229 5.4453C9.05769 4.9999 9.66178 4.74967 10.2917 4.74967H30.0833V25.333H10.2917C9.46225 25.333 8.65201 25.5189 7.91667 25.8677V7.12467C7.91667 6.49478 8.16689 5.89069 8.61229 5.4453ZM7.91667 30.8747C7.91667 31.5046 8.16689 32.1087 8.61229 32.5541C9.05769 32.9995 9.66178 33.2497 10.2917 33.2497H30.0833V28.4997H10.2917C9.66178 28.4997 9.05769 28.7499 8.61229 29.1953C8.16689 29.6407 7.91667 30.2448 7.91667 30.8747Z" fill="white"/>
</svg>
