<svg width="37" height="38" viewBox="0 0 37 38" fill="none" xmlns="http://www.w3.org/2000/svg">
<path d="M28.8398 10.6199C29.4419 10.0016 29.4419 8.99907 28.8398 8.38074C28.2377 7.76241 27.2616 7.76241 26.6596 8.38074L18.4997 16.7612L10.3398 8.38074C9.73774 7.76241 8.76161 7.76241 8.15955 8.38074C7.55749 8.99907 7.55749 10.0016 8.15955 10.6199L16.3194 19.0003L8.15955 27.3807C7.55749 27.9991 7.55749 29.0016 8.15955 29.6199C8.76161 30.2382 9.73774 30.2382 10.3398 29.6199L18.4997 21.2395L26.6596 29.6199C27.2616 30.2382 28.2377 30.2382 28.8398 29.6199C29.4419 29.0016 29.4419 27.9991 28.8398 27.3807L20.6799 19.0003L28.8398 10.6199Z" fill="#1A1A1A"/>
</svg>
