<svg width="90" height="93" viewBox="0 0 90 93" fill="none" xmlns="http://www.w3.org/2000/svg">
<g clip-path="url(#clip0_68_3858)">
<path d="M78.75 47.0632C78.75 25.9193 62.775 11.5537 45 11.5537C27.4125 11.5537 11.25 25.6111 11.25 47.2943C9 48.6037 7.5 51.0686 7.5 53.9186V61.6213C7.5 65.8578 10.875 69.324 15 69.324H18.75V45.8307C18.75 30.926 30.4875 18.8713 45 18.8713C59.5125 18.8713 71.25 30.926 71.25 45.8307V73.1753H41.25V80.878H71.25C75.375 80.878 78.75 77.4118 78.75 73.1753V68.4767C80.9625 67.2828 82.5 64.9334 82.5 62.1605V53.3024C82.5 50.6064 80.9625 48.2571 78.75 47.0632Z" fill="#1A1A1A"/>
<path d="M33.75 53.9185C35.8211 53.9185 37.5 52.1942 37.5 50.0672C37.5 47.9401 35.8211 46.2158 33.75 46.2158C31.6789 46.2158 30 47.9401 30 50.0672C30 52.1942 31.6789 53.9185 33.75 53.9185Z" fill="#1A1A1A"/>
<path d="M56.25 53.9185C58.3211 53.9185 60 52.1942 60 50.0672C60 47.9401 58.3211 46.2158 56.25 46.2158C54.1789 46.2158 52.5 47.9401 52.5 50.0672C52.5 52.1942 54.1789 53.9185 56.25 53.9185Z" fill="#1A1A1A"/>
<path d="M67.5003 42.4797C65.7003 31.5034 56.4003 23.1074 45.1878 23.1074C33.8253 23.1074 21.6003 32.7743 22.5753 47.9486C31.8378 44.0588 38.8128 35.5858 40.8003 25.2642C45.7128 35.3932 55.8003 42.3642 67.5003 42.4797Z" fill="#1A1A1A"/>
</g>
<defs>
<clipPath id="clip0_68_3858">
<rect width="90" height="92.4324" fill="#1A1A1A"/>
</clipPath>
</defs>
</svg>
