<svg width="38" height="38" viewBox="0 0 38 38" fill="none" xmlns="http://www.w3.org/2000/svg">
<g clip-path="url(#clip0_68_3856)">
<path fill-rule="evenodd" clip-rule="evenodd" d="M1.58333 0C0.708882 0 0 0.708882 0 1.58333C0 2.45778 0.708882 3.16667 1.58333 3.16667H6.61883L7.93559 9.74554C7.9426 9.7906 7.95152 9.83502 7.96225 9.87874L10.607 23.0926C10.8244 24.1855 11.4194 25.1686 12.2874 25.8673C13.1515 26.5629 14.2316 26.934 15.3404 26.9167H30.703C31.8117 26.934 32.8918 26.5629 33.7559 25.8673C34.6243 25.1683 35.2191 24.1861 35.4363 23.0926L35.4386 23.0808L37.972 9.7966C38.0604 9.33308 37.9374 8.85429 37.6366 8.49071C37.3358 8.12714 36.8885 7.91667 36.4167 7.91667H10.799L9.46921 1.27259C9.3211 0.53261 8.67133 0 7.91667 0H1.58333ZM11.4328 11.0833H34.5028L32.3293 22.4808C32.2561 22.8432 32.0583 23.1687 31.7702 23.4006C31.4807 23.6336 31.1185 23.7574 30.747 23.7503L30.7167 23.75H15.3267L15.2963 23.7503C14.9248 23.7574 14.5626 23.6336 14.2731 23.4006C13.9837 23.1676 13.7854 22.8402 13.713 22.4757L11.4328 11.0833Z" fill="white"/>
<path d="M11.0833 33.25C11.0833 31.5011 12.5011 30.0833 14.25 30.0833C15.9989 30.0833 17.4167 31.5011 17.4167 33.25C17.4167 34.9989 15.9989 36.4167 14.25 36.4167C12.5011 36.4167 11.0833 34.9989 11.0833 33.25Z" fill="white"/>
<path d="M28.5 33.25C28.5 31.5011 29.9178 30.0833 31.6667 30.0833C33.4156 30.0833 34.8333 31.5011 34.8333 33.25C34.8333 34.9989 33.4156 36.4167 31.6667 36.4167C29.9178 36.4167 28.5 34.9989 28.5 33.25Z" fill="white"/>
</g>
<defs>
<clipPath id="clip0_68_3856">
<rect width="38" height="38" fill="white"/>
</clipPath>
</defs>
</svg>
